<?xml version="1.0" encoding="iso-8859-1"?>
<!-- Uploaded to: SVG Repo, www.svgrepo.com, Generator: SVG Repo Mixer Tools -->
<svg height="800px" width="800px" version="1.1" id="Layer_1" xmlns="http://www.w3.org/2000/svg" xmlns:xlink="http://www.w3.org/1999/xlink" 
	 viewBox="0 0 512 512" xml:space="preserve">
<polygon style="fill:#35495C;" points="352,512 328,472 376,472 "/>
<path style="fill:#F6B545;" d="M288,80v328c10.64-21.36,21.36-21.36,32,0V80H288z"/>
<path style="fill:#DA8C36;" d="M320,408c-10.64-21.36-21.36-21.36-32,0l40,64h8L320,408z"/>
<path style="fill:#E78825;" d="M384,80v328c10.64-21.36,21.36-21.36,32,0V80H384z"/>
<path style="fill:#B06328;" d="M384,408l-16,64h8l40-64C405.36,386.64,394.64,386.64,384,408z"/>
<polygon style="fill:#123247;" points="352,512 376,472 368,472 "/>
<polygon style="fill:#435970;" points="352,512 328,472 336,472 "/>
<path style="fill:#B2C4D0;" d="M288,48h128c4.416,0,8,3.584,8,8v16c0,4.416-3.584,8-8,8H288c-4.416,0-8-3.584-8-8V56
	C280,51.584,283.584,48,288,48z"/>
<path style="fill:#9675B4;" d="M304,0h96c8.84,0,16,7.16,16,16v32l0,0H288l0,0V16C288,7.16,295.16,0,304,0z"/>
<path style="fill:#C97629;" d="M384,408l-16,64h-32l-16-64c13.256-17.672,38.328-21.256,56-8
	C379.032,402.272,381.728,404.968,384,408z"/>
<path style="fill:#F19920;" d="M320,80v328c13.256-17.672,38.328-21.256,56-8c3.032,2.272,5.728,4.968,8,8V80H320z"/>
<path style="fill:#8FAEBF;" d="M416,64v8H296c-4.416,0-8,3.584-8,8h128c4.416,0,8-3.584,8-8V56C419.584,56,416,59.584,416,64z"/>
<path style="fill:#8664AB;" d="M408,24v16H296c-4.416,0-8,3.584-8,8h128V16C411.584,16,408,19.584,408,24z"/>
<path style="fill:#B2C4D0;" d="M216,0H104c-8.84,0-16,7.16-16,16v480c0,8.84,7.16,16,16,16h112c8.84,0,16-7.16,16-16V16
	C232,7.16,224.84,0,216,0z M160,480c-8.84,0-16-7.16-16-16s7.16-16,16-16s16,7.16,16,16S168.84,480,160,480z"/>
<path style="fill:#8FAEBF;" d="M216,32v464h-96c-8.84,0-16,7.16-16,16h112c8.84,0,16-7.16,16-16V16l0,0C223.16,16,216,23.16,216,32z
	"/>
<g>
	<path style="fill:#576D7E;" d="M88,128h56c4.416,0,8,3.584,8,8l0,0c0,4.416-3.584,8-8,8H88l0,0V128L88,128z"/>
	<path style="fill:#576D7E;" d="M88,32h56c4.416,0,8,3.584,8,8l0,0c0,4.416-3.584,8-8,8H88l0,0V32L88,32z"/>
	<path style="fill:#576D7E;" d="M88,416h56c4.416,0,8,3.584,8,8l0,0c0,4.416-3.584,8-8,8H88l0,0V416L88,416z"/>
	<path style="fill:#576D7E;" d="M88,80h32c4.416,0,8,3.584,8,8l0,0c0,4.416-3.584,8-8,8H88l0,0V80L88,80z"/>
	<path style="fill:#576D7E;" d="M88,224h56c4.416,0,8,3.584,8,8l0,0c0,4.416-3.584,8-8,8H88l0,0V224L88,224z"/>
	<path style="fill:#576D7E;" d="M88,176h32c4.416,0,8,3.584,8,8l0,0c0,4.416-3.584,8-8,8H88l0,0V176L88,176z"/>
	<path style="fill:#576D7E;" d="M88,320h56c4.416,0,8,3.584,8,8l0,0c0,4.416-3.584,8-8,8H88l0,0V320L88,320z"/>
	<path style="fill:#576D7E;" d="M88,272h32c4.416,0,8,3.584,8,8l0,0c0,4.416-3.584,8-8,8H88l0,0V272L88,272z"/>
	<path style="fill:#576D7E;" d="M88,368h32c4.416,0,8,3.584,8,8l0,0c0,4.416-3.584,8-8,8H88l0,0V368L88,368z"/>
</g>
</svg>